<svg width="24" height="24" viewBox="0 0 24 24" fill="none" xmlns="http://www.w3.org/2000/svg">
<path fill-rule="evenodd" clip-rule="evenodd" d="M12 8C9.79086 8 8 9.79086 8 12C8 14.2091 9.79086 16 12 16C14.2091 16 16 14.2091 16 12C16 9.79086 14.2091 8 12 8ZM10 12C10 10.8954 10.8954 10 12 10C13.1046 10 14 10.8954 14 12C14 13.1046 13.1046 14 12 14C10.8954 14 10 13.1046 10 12Z" fill="currentColor"/>
<path fill-rule="evenodd" clip-rule="evenodd" d="M13 1C13 0.447715 12.5523 0 12 0C11.4477 0 11 0.447715 11 1V2.04938C6.27558 2.51844 2.51844 6.27558 2.04938 11H1C0.447715 11 0 11.4477 0 12C0 12.5523 0.447715 13 1 13H2.04938C2.51844 17.7244 6.27558 21.4816 11 21.9506V23C11 23.5523 11.4477 24 12 24C12.5523 24 13 23.5523 13 23V21.9506C17.7244 21.4816 21.4816 17.7244 21.9506 13H23C23.5523 13 24 12.5523 24 12C24 11.4477 23.5523 11 23 11H21.9506C21.4816 6.27558 17.7244 2.51844 13 2.04938V1ZM12 20C7.58172 20 4 16.4183 4 12C4 7.58172 7.58172 4 12 4C16.4183 4 20 7.58172 20 12C20 16.4183 16.4183 20 12 20Z" fill="currentColor"/>
</svg>
