<svg width="14" height="16" viewBox="0 0 14 16" fill="none" xmlns="http://www.w3.org/2000/svg">
<path d="M13.3673 13.7975L8.4473 1.90249C8.1698 1.28749 7.7573 0.987488 7.21355 0.987488H6.77855C6.2348 0.987488 5.8223 1.28749 5.5448 1.90249L3.40355 7.08499H1.78355C1.2998 7.08874 0.906054 7.47874 0.902304 7.96624V7.97749C0.906054 8.46124 1.2998 8.85499 1.78355 8.85874H2.65355L0.609805 13.7975C0.572305 13.9062 0.549805 14.0187 0.549805 14.135C0.549805 14.4125 0.636054 14.63 0.789804 14.7987C0.943554 14.9675 1.1648 15.05 1.4423 15.05C1.62605 15.0462 1.8023 14.99 1.94855 14.8812C2.10605 14.7725 2.21481 14.615 2.30106 14.435L4.55105 8.85499H6.11105C6.5948 8.85124 6.98855 8.46124 6.9923 7.97374V7.95124C6.98855 7.46749 6.5948 7.07374 6.11105 7.06999H5.27855L6.99605 2.79124L11.6761 14.4312C11.7623 14.6112 11.8711 14.7687 12.0286 14.8775C12.1748 14.9862 12.3548 15.0425 12.5348 15.0462C12.8123 15.0462 13.0298 14.9637 13.1873 14.795C13.3448 14.6262 13.4273 14.4087 13.4273 14.1312C13.4311 14.0187 13.4123 13.9025 13.3673 13.7975Z" fill="white"/>
</svg>
