<svg width="16" height="20" viewBox="0 0 16 20" fill="none" xmlns="http://www.w3.org/2000/svg">
<path fill-rule="evenodd" clip-rule="evenodd" d="M1.66538 15.0296C1.21688 14.7551 0.942383 14.2676 0.942383 13.7426V10.8116C0.942383 10.4636 1.22588 10.1816 1.57388 10.1831C1.68488 10.1831 1.79438 10.2131 1.89038 10.2686L8.50388 14.1251C8.89088 14.3501 9.12938 14.7641 9.12938 15.2126V18.2486C9.13088 18.6656 8.79338 19.0046 8.37638 19.0046C8.23688 19.0046 8.09888 18.9656 7.98038 18.8936L1.66538 15.0296ZM11.5234 9.46613C11.9104 9.69113 12.1474 10.1066 12.1489 10.5536V16.7156C12.1489 16.8971 12.0514 17.0651 11.8924 17.1536L10.4449 17.9681C10.4269 17.9786 10.4074 17.9861 10.3864 17.9921V14.5706C10.3864 14.1281 10.1539 13.7171 9.77288 13.4891L3.96488 10.0151V6.15263C3.96488 5.80463 4.24838 5.52263 4.59638 5.52413C4.70738 5.52413 4.81688 5.55413 4.91288 5.60963L11.5234 9.46613ZM14.4184 4.91513C14.8069 5.14013 15.0454 5.55563 15.0454 6.00413V15.0041C15.0439 15.1886 14.9419 15.3581 14.7799 15.4466L13.4074 16.1876V9.92213C13.4074 9.47963 13.1749 9.07013 12.7969 8.84213L6.85988 5.28113V1.61813C6.85988 1.50713 6.88988 1.39763 6.94388 1.30163C7.11938 1.00163 7.50488 0.899633 7.80488 1.07363L14.4184 4.91513Z" fill="white"/>
</svg>
