<svg width="48" height="44" viewBox="0 0 48 44" fill="none" xmlns="http://www.w3.org/2000/svg">
<path fill-rule="evenodd" clip-rule="evenodd" d="M33.3681 17.3827C38.1682 17.3827 42.0595 13.4915 42.0595 8.69136C42.0595 3.89125 38.1682 0 33.3681 0C28.568 0 24.6768 3.89125 24.6768 8.69136C24.6768 13.4915 28.568 17.3827 33.3681 17.3827ZM0.98078 30.8625C0.223699 31.1211 -0.180428 31.9444 0.0781369 32.7015C0.336702 33.4586 1.16005 33.8627 1.91713 33.6042L46.4687 18.3886C47.2258 18.13 47.6299 17.3066 47.3713 16.5496C47.1128 15.7925 46.2894 15.3884 45.5323 15.6469L0.98078 30.8625ZM25.6197 29.9852C24.9113 29.0956 23.5597 29.0956 22.8512 29.9852L13.9776 41.1282C13.0544 42.2874 13.8799 44 15.3618 44H33.1091C34.591 44 35.4165 42.2874 34.4934 41.1282L25.6197 29.9852ZM6.85276 24.9877C6.85276 26.7877 5.39354 28.2469 3.5935 28.2469C1.79346 28.2469 0.334243 26.7877 0.334243 24.9877C0.334243 23.1876 1.79346 21.7284 3.5935 21.7284C5.39354 21.7284 6.85276 23.1876 6.85276 24.9877Z" fill="url(#paint0_linear_701_136)"/>
<defs>
<linearGradient id="paint0_linear_701_136" x1="-19.2372" y1="-24.9674" x2="49.4213" y2="84.3241" gradientUnits="userSpaceOnUse">
<stop stop-color="#9CF9FF"/>
<stop offset="0.483129" stop-color="#02CCFC"/>
<stop offset="1" stop-color="#446C9F"/>
</linearGradient>
</defs>
</svg>
