<svg width="22" height="20" viewBox="0 0 22 20" fill="none" xmlns="http://www.w3.org/2000/svg">
<path d="M4.49023 15.5244C4.60616 15.4457 4.71437 15.3277 4.76823 15.1603C4.82809 14.9742 4.79277 14.8105 4.76474 14.7199C4.76382 14.7169 4.76284 14.7138 4.76186 14.7108L4.7842 14.5804C4.8459 14.6151 4.91689 14.6617 4.99787 14.7186C5.01739 14.7323 5.04469 14.7518 5.07309 14.7721C5.11036 14.7987 5.14966 14.8267 5.17585 14.845C5.22084 14.8762 5.28474 14.9199 5.35243 14.9558C7.14396 16.0693 8.62555 16.5283 9.80233 16.4715C11.019 16.4127 11.8722 15.8006 12.3123 14.9074C12.7377 14.0441 12.7525 12.9743 12.4543 11.9833C12.1544 10.9858 11.5234 10.0164 10.5828 9.34557C8.99798 8.21524 7.54577 6.49648 6.81143 5.03503C6.43851 4.2928 6.29015 3.69421 6.32932 3.30336C6.3475 3.12146 6.40326 3.01141 6.46991 2.9406C6.53662 2.86972 6.65818 2.79156 6.89235 2.753C7.38835 2.67129 7.96202 2.49265 8.54421 2.31138C8.77024 2.24099 8.99749 2.17021 9.22205 2.10455C10.0612 1.85918 10.9495 1.65305 11.8832 1.6548C13.6943 1.6582 15.8197 2.44449 18.0575 5.71544C20.9323 9.91735 19.354 14.6127 16.0423 17.0794C14.3907 18.3096 12.33 18.9625 10.2125 18.7143C8.30587 18.4908 6.30894 17.5312 4.49023 15.5244ZM4.82368 14.4368C4.82368 14.437 4.82307 14.4382 4.8216 14.4403C4.82288 14.4378 4.82362 14.4368 4.82368 14.4368ZM4.64368 14.5189C4.64361 14.5188 4.64545 14.519 4.64943 14.52C4.64576 14.5195 4.6438 14.5191 4.64368 14.5189Z" fill="white" stroke="#0E0A10" stroke-width="1.69486"/>
<path d="M6.13672 2.96761C6.13672 2.96761 11.2723 1.6001 12.3967 1.6001C13.5211 1.6001 18.014 3.78188 19.3253 7.76896C21.1841 13.4212 16.1281 17.1273 15.5571 16.7639C20.9966 12.2664 12.0928 3.95313 7.71691 4.57816C7.16992 4.65632 7.4738 5.12515 7.4738 5.12515L7.35225 6.34068L6.4406 4.82127L6.13672 2.96761Z" fill="black"/>
<path d="M18.5762 6.06854C20.1979 8.92345 19.8609 7.28891 19.5009 10.5525C20.1671 9.47472 21.2088 10.2817 21.6391 10.6938C21.7162 10.7677 21.8434 10.7219 21.8398 10.6152C21.8234 10.1311 21.6847 9.08503 20.8834 7.96284C19.7845 6.42396 18.5762 6.06854 18.5762 6.06854Z" fill="black"/>
<path d="M19.5009 10.5525C19.5629 10.3993 19.6597 10.1602 19.6597 10.1602M19.5009 10.5525C19.8609 7.28891 20.1979 8.92345 18.5762 6.06854C18.5762 6.06854 19.7845 6.42396 20.8834 7.96284C21.6847 9.08503 21.8234 10.1311 21.8398 10.6152C21.8434 10.7219 21.7162 10.7677 21.6391 10.6938C21.2088 10.2817 20.1671 9.47472 19.5009 10.5525Z" stroke="#0E0A10" stroke-width="0.095217"/>
<path d="M5.52847 10.1172C4.8442 11.2757 3.4403 11.1888 3.46718 12.5705C4.72112 15.3565 4.72853 15.1567 4.72853 15.1567C7.05131 13.8518 6.09676 10.9707 5.75212 10.1232C5.71313 10.0274 5.58105 10.0282 5.52847 10.1172Z" fill="black"/>
<path d="M0.263063 12.6787C1.5972 12.8528 2.39306 11.6929 3.46531 12.5648C4.88871 15.2681 4.72664 15.1509 4.72664 15.1509C2.2684 16.178 0.585662 13.652 0.130095 12.8586C0.0785974 12.769 0.160526 12.6653 0.263063 12.6787Z" fill="black"/>
<path d="M11.4545 10.9599C11.4545 10.9599 12.7917 12.3275 12.0927 12.5401C11.2211 12.0037 9.65943 12.4205 8.89388 12.6787C8.70543 12.7423 8.52065 12.575 8.58859 12.388C8.8489 11.6718 9.49167 10.3459 10.7252 10.1698C11.4545 9.98732 11.4545 10.9599 11.4545 10.9599Z" fill="black"/>
<path d="M12.2746 4.27423C12.1226 4.06154 11.8188 3.48413 12.7608 3.48413C13.7029 3.48413 15.1423 4.55081 15.435 4.9454C15.3438 5.18587 14.7361 5.23967 14.4322 5.21629C14.1283 5.19291 13.6117 5.14291 13.2167 4.9454C12.8216 4.74789 12.4266 4.48697 12.2746 4.27423Z" fill="white"/>
</svg>
