<svg width="44" height="44" viewBox="0 0 44 44" fill="none" xmlns="http://www.w3.org/2000/svg">
<path d="M43.1855 22C43.1855 19.1109 42.6165 16.2501 41.5109 13.581C40.4053 10.9118 38.7848 8.48654 36.7419 6.44365C34.699 4.40076 32.2737 2.78025 29.6046 1.67465C26.9354 0.569047 24.0746 -1.26286e-07 21.1855 0L24.8522 18.3333L43.1855 22Z" fill="url(#paint0_linear_701_159)"/>
<path d="M43.567 26.3435C42.7896 30.2033 40.9906 33.7838 38.3577 36.7114C35.7248 39.6389 32.3545 41.8062 28.5985 42.9871C24.8424 44.1681 20.8382 44.3193 17.0038 43.4252C13.1693 42.531 9.64508 40.6241 6.79882 37.9036C3.95256 35.183 1.88857 31.7485 0.822211 27.9583C-0.244144 24.1681 -0.273783 20.1612 0.736386 16.3556C1.74656 12.5501 3.75951 9.08539 6.56522 6.32303C9.37092 3.56066 12.8666 1.60189 16.6874 0.65109L17.5305 4.03921C14.3161 4.83912 11.3752 6.48703 9.01475 8.811C6.65432 11.135 4.96082 14.0498 4.11097 17.2514C3.26111 20.453 3.28605 23.824 4.18317 27.0127C5.08029 30.2014 6.81672 33.0909 9.21128 35.3797C11.6058 37.6685 14.5708 39.2727 17.7967 40.0249C21.0226 40.7772 24.3913 40.65 27.5513 39.6564C30.7112 38.6629 33.5467 36.8396 35.7617 34.3766C37.9768 31.9137 39.4903 28.9015 40.1442 25.6542L43.567 26.3435Z" fill="url(#paint1_linear_701_159)"/>
<defs>
<linearGradient id="paint0_linear_701_159" x1="12.2662" y1="-12.4837" x2="47.655" y2="39.7535" gradientUnits="userSpaceOnUse">
<stop stop-color="#9CF9FF"/>
<stop offset="0.483129" stop-color="#02CCFC"/>
<stop offset="1" stop-color="#446C9F"/>
</linearGradient>
<linearGradient id="paint1_linear_701_159" x1="-17.8387" y1="-24.9674" x2="52.939" y2="79.507" gradientUnits="userSpaceOnUse">
<stop stop-color="#9CF9FF"/>
<stop offset="0.483129" stop-color="#02CCFC"/>
<stop offset="1" stop-color="#446C9F"/>
</linearGradient>
</defs>
</svg>
