<svg width="1440" height="439" viewBox="0 0 1440 439" fill="none" xmlns="http://www.w3.org/2000/svg">
<g opacity="0.05">
<path d="M1650.03 437.865C1654.77 422.674 1659.52 407.482 1664.27 392.29C1680.53 340.221 1687.82 287.942 1667.74 241.409C1645.46 189.754 1595.6 158.937 1540.78 163.848C1494.27 168.013 1445.93 176.659 1410.71 142.657C1384.05 116.914 1363.45 84.3479 1323.83 78.5475C1284.25 72.7536 1242.31 99.3425 1208.4 130.37C1174.49 161.398 1143.9 198.363 1105.85 221.584C1074.12 240.946 1038.27 249.575 1005.02 245.855C927.509 237.184 869.356 164.866 789.847 169.498C745.062 172.107 591.842 -13.5706 559.953 155.992C508.864 427.652 98.9706 291.884 58.4436 327.9" stroke="url(#paint0_radial_139_2910)"/>
<path d="M1659.62 425.137C1663.52 410.59 1667.36 395.753 1671.29 380.932C1684.78 330.071 1689.99 280.03 1668.85 231.982C1646.4 180.981 1597.14 150.778 1542.89 154.85C1496.11 158.362 1447.77 165.478 1411.17 133.245C1382.83 108.285 1360.01 79.6698 1318.7 74.7103C1278.18 69.8471 1235.05 95.0393 1200.74 124.514C1166.56 153.874 1136.62 189.923 1098.36 211.375C1066.07 229.478 1027.39 237.447 994.943 233.817C918.453 225.502 860.654 153.612 782.46 160.238C735.7 164.201 584.813 -14.7318 552.926 151.291C501.732 417.365 92.1316 279.678 52.1155 316.589" stroke="url(#paint1_radial_139_2910)"/>
<path d="M1669.21 412.409C1672.26 398.506 1675.19 384.027 1678.31 369.574C1689.02 319.933 1692.18 272.12 1669.96 222.556C1647.38 172.199 1598.67 142.602 1545.01 145.853C1497.94 148.705 1449.52 154.312 1411.62 123.834C1381.54 99.6383 1356.59 74.9769 1313.57 70.8731C1272.13 66.9202 1227.81 90.7213 1193.08 118.658C1158.66 146.343 1129.29 181.476 1090.87 201.166C1057.97 218.023 1016.51 225.219 984.867 221.78C909.421 213.582 851.922 142.567 775.072 150.979C726.28 156.319 577.784 -15.8929 545.9 146.591C494.601 407.077 85.2931 267.471 45.7878 305.279" stroke="url(#paint2_radial_139_2910)"/>
<path d="M1678.8 399.68C1681 386.422 1683.03 372.305 1685.33 358.216C1693.25 309.808 1694.37 264.209 1671.06 213.129C1648.37 163.408 1600.19 134.408 1547.13 136.856C1499.76 139.041 1451.19 143.173 1412.08 114.422C1380.19 90.9823 1353.18 70.2695 1308.44 67.0359C1266.07 63.9743 1220.59 86.3901 1185.41 112.801C1150.78 138.807 1121.91 173.014 1083.38 190.957C1049.83 206.578 1005.63 213.043 974.791 209.743C900.377 201.781 843.171 131.711 767.685 141.719C716.811 148.463 570.756 -17.054 538.873 141.891C487.469 396.79 78.4541 255.265 39.4597 293.969" stroke="url(#paint3_radial_139_2910)"/>
<path d="M1688.39 386.952C1689.75 374.338 1690.86 360.588 1692.36 346.858C1697.49 299.697 1696.57 256.298 1672.17 203.702C1649.39 154.61 1601.71 126.196 1549.24 127.859C1501.57 129.369 1452.78 132.066 1412.53 105.01C1378.79 82.3261 1349.77 65.5477 1303.31 63.1986C1260.03 61.0109 1213.41 82.0474 1177.75 106.945C1142.92 131.267 1114.48 164.533 1075.88 180.748C1041.63 195.138 994.746 200.867 964.714 197.706C891.331 189.98 834.41 121.024 760.298 132.459C707.302 140.636 563.727 -18.2153 531.847 137.19C480.338 386.502 71.6155 243.058 33.1321 282.658" stroke="url(#paint4_radial_139_2910)"/>
<path d="M1697.98 374.224C1698.49 362.254 1698.7 348.876 1699.38 335.5C1701.72 289.603 1698.78 248.386 1673.27 194.275C1650.43 145.804 1603.22 117.967 1551.36 118.861C1503.37 119.689 1454.31 120.998 1412.99 95.5975C1377.33 73.6774 1346.37 60.8119 1298.18 59.3612C1253.99 58.0313 1206.25 77.6953 1170.09 101.089C1135.09 123.727 1107.01 156.024 1068.39 170.539C1033.39 183.696 983.863 188.694 954.638 185.668C882.285 178.179 825.643 110.488 752.91 123.199C697.758 132.837 556.698 -19.3766 524.82 132.49C473.206 376.214 64.7765 230.852 26.804 271.348" stroke="url(#paint5_radial_139_2910)"/>
<path d="M1707.57 361.496C1707.24 350.17 1706.53 337.17 1706.4 324.142C1705.96 279.527 1700.99 240.472 1674.38 184.848C1651.48 136.991 1604.73 109.719 1553.48 109.864C1505.17 110.001 1455.77 109.974 1413.44 86.1856C1375.82 65.0436 1342.97 56.0631 1293.05 55.524C1247.95 55.0372 1199.13 73.3372 1162.43 95.2324C1127.3 116.192 1099.48 147.484 1060.9 160.33C1025.1 172.25 972.98 176.521 944.562 173.631C873.238 166.378 816.877 100.087 745.523 113.939C688.187 125.07 549.67 -20.5376 517.794 127.789C466.075 365.927 57.938 218.645 20.4763 260.038" stroke="url(#paint6_radial_139_2910)"/>
<path d="M1717.16 348.767C1715.98 338.086 1714.37 325.469 1713.42 312.784C1710.21 269.469 1703.22 232.557 1675.48 175.422C1652.55 128.172 1606.22 101.453 1555.59 100.867C1506.96 100.303 1457.18 98.9939 1413.9 76.7736C1374.27 56.4307 1339.58 51.3015 1287.91 51.6868C1241.92 52.0297 1192.04 68.9758 1154.76 89.376C1119.53 108.662 1091.91 138.906 1053.41 150.121C1016.77 160.792 962.097 164.35 934.485 161.594C864.191 154.577 808.114 89.8063 738.136 104.679C678.594 117.334 542.641 -21.6989 510.767 123.089C458.943 355.639 51.099 206.439 14.1482 248.727" stroke="url(#paint7_radial_139_2910)"/>
<path d="M1726.75 336.039C1724.72 326.002 1722.21 313.774 1720.45 301.426C1714.46 259.43 1705.45 224.64 1676.59 165.995C1653.63 119.348 1607.72 93.1699 1557.71 91.8695C1508.74 90.5961 1458.54 88.0601 1414.35 67.3617C1372.69 47.8437 1336.19 46.528 1282.78 47.8496C1235.89 49.0102 1184.98 64.6147 1147.1 83.5197C1111.79 101.144 1084.31 130.288 1045.92 139.912C1008.4 149.319 951.214 152.181 924.409 149.557C855.142 142.776 799.358 79.6327 730.748 95.4192C668.984 109.631 535.613 -22.86 503.74 118.388C451.812 345.351 44.2604 194.233 7.82056 237.417" stroke="url(#paint8_radial_139_2910)"/>
<path d="M1736.34 323.311C1733.47 313.918 1730.05 302.084 1727.47 290.068C1718.73 249.408 1707.69 216.721 1677.7 156.568C1654.73 110.517 1609.21 84.8687 1559.82 82.8722C1510.52 80.8787 1459.86 77.1719 1414.81 57.9496C1371.07 39.2867 1332.79 41.7428 1277.65 44.0122C1229.86 45.9794 1177.95 60.2579 1139.44 77.6633C1104.08 93.6401 1076.66 121.626 1038.43 129.702C999.985 137.824 940.33 140.013 914.332 137.519C846.093 130.975 790.609 69.5545 723.361 86.1592C659.362 101.962 528.584 -24.0213 496.713 113.688C444.68 335.064 37.4214 182.026 1.49243 226.106" stroke="url(#paint9_radial_139_2910)"/>
<path d="M1745.93 310.583C1741.51 300.186 1737.69 289.544 1734.49 278.71C1723.03 239.4 1709.94 208.798 1678.8 147.141C1655.84 101.681 1610.69 76.5499 1561.94 73.8749C1512.29 71.1506 1461.14 66.3284 1415.26 48.5376C1369.42 30.763 1329.4 36.9469 1272.52 40.175C1223.83 42.9386 1170.96 55.9096 1131.78 71.807C1096.41 86.1544 1068.98 112.918 1030.94 119.493C991.539 126.303 929.446 127.847 904.256 125.482C837.043 119.173 781.87 59.5616 715.974 76.8994C649.731 94.3282 521.555 -25.1824 489.687 108.987C437.548 324.776 30.5828 169.82 -4.83521 214.796" stroke="url(#paint10_radial_139_2910)"/>
<path d="M1755.52 297.855C1750.1 288.049 1745.42 277.853 1741.51 267.352C1727.35 229.401 1712.2 200.873 1679.91 137.715C1656.96 92.8407 1612.18 68.2138 1564.06 64.8778C1514.06 61.4114 1462.41 55.528 1415.72 39.1258C1367.75 22.2751 1326.01 32.1409 1267.39 36.3379C1217.8 39.8888 1164.01 51.5745 1124.11 65.9508C1088.76 78.6904 1061.28 104.163 1023.45 109.285C983.064 114.752 918.562 115.682 894.18 113.445C827.993 107.372 773.141 49.6451 708.587 67.6396C640.095 86.7313 514.81 -26.2741 482.661 104.287C430.873 314.601 23.7441 157.613 -11.1631 203.486" stroke="url(#paint11_radial_139_2910)"/>
<path d="M1765.11 285.126C1759.7 277.666 1753.62 267.036 1748.54 255.994C1731.69 219.406 1714.47 192.944 1681.01 128.288C1658.1 83.9951 1613.66 59.8603 1566.17 55.8803C1515.82 51.6599 1463.65 44.768 1416.17 29.7137C1366.06 13.8242 1322.62 27.3249 1262.26 32.5005C1211.77 36.8303 1157.08 47.2564 1116.45 60.0942C1081.14 71.251 1053.55 95.36 1015.96 99.0754C974.563 103.166 907.677 103.52 884.103 101.408C818.941 95.5701 764.424 39.7965 701.199 58.3795C630.458 79.1719 507.804 -27.4278 475.634 99.5864C423.778 304.326 16.9053 145.407 -17.491 192.175" stroke="url(#paint12_radial_139_2910)"/>
<path d="M1774.7 272.398C1768.44 265.582 1761.49 255.355 1755.56 244.636C1736.06 209.41 1716.75 185.01 1682.12 118.861C1659.24 75.1452 1615.13 51.49 1568.29 46.8831C1517.58 41.8962 1464.88 34.0465 1416.62 20.3017C1364.35 5.41163 1319.23 22.5 1257.13 28.6632C1205.73 33.7644 1150.18 42.9605 1108.79 54.2379C1073.55 63.8393 1045.8 86.5108 1008.47 88.8664C966.042 91.5427 896.792 91.3588 874.027 89.3704C809.888 83.7684 755.717 30.0091 693.812 49.1196C620.823 71.6517 500.797 -28.5811 468.607 94.886C416.682 294.051 10.0663 133.2 -23.8191 180.865" stroke="url(#paint13_radial_139_2910)"/>
<path d="M1784.29 259.67C1777.18 253.498 1769.37 243.672 1762.58 233.278C1740.45 199.407 1719.03 177.073 1683.22 109.434C1660.39 66.2912 1616.61 43.1032 1570.41 37.8859C1519.34 32.1196 1466.1 23.3607 1417.08 10.8898C1362.63 -2.96238 1315.84 17.6666 1252 24.826C1199.7 30.6915 1143.3 38.6906 1101.13 48.3816C1065.98 56.4574 1038.05 77.6162 1000.97 78.6574C957.506 79.8782 885.907 79.2001 863.95 77.3332C800.835 71.9668 747.022 20.2764 686.424 39.8598C611.192 64.1723 493.789 -29.7341 461.58 90.1856C409.584 283.777 3.22728 120.994 -30.1472 169.554" stroke="url(#paint14_radial_139_2910)"/>
<path d="M1793.89 246.942C1785.93 241.414 1777.26 231.985 1769.6 221.92C1744.87 189.392 1721.33 169.132 1684.33 100.007C1661.54 57.4333 1618.09 34.7001 1572.52 28.8887C1521.1 22.3296 1467.31 12.708 1417.53 1.47788C1360.91 -11.298 1312.44 12.8252 1246.87 20.9888C1193.67 27.6125 1136.45 34.451 1093.46 42.5254C1058.42 49.1069 1030.28 68.6783 993.483 68.4485C948.96 68.1704 875.022 67.0436 853.874 65.2961C791.78 60.1651 738.34 10.5931 679.037 30.6C601.57 56.735 486.781 -30.8867 454.554 85.4852C402.486 273.504 -3.61125 108.788 -36.4749 158.244" stroke="url(#paint15_radial_139_2910)"/>
<path d="M1803.48 234.213C1794.67 229.33 1785.15 220.294 1776.63 210.562C1749.31 179.363 1723.63 161.185 1685.44 90.5806C1662.71 48.5714 1619.56 26.281 1574.64 19.8914C1522.85 12.5255 1468.52 2.08548 1417.99 -7.93412C1359.18 -19.5959 1309.05 7.97611 1241.74 17.1516C1187.63 24.5275 1129.62 30.2448 1085.8 36.669C1050.89 41.7886 1022.51 59.699 985.992 58.2394C940.41 56.4175 864.136 54.8892 843.798 53.2588C782.725 48.3632 729.669 0.953797 671.65 21.3401C591.958 49.3414 479.771 -32.0393 447.527 80.7847C395.386 263.23 -10.4498 96.5813 -42.8025 146.934" stroke="url(#paint16_radial_139_2910)"/>
<path d="M1813.07 221.485C1803.41 217.246 1793.05 208.598 1783.65 199.204C1753.76 169.316 1725.95 153.233 1686.54 81.1538C1663.88 39.706 1621.04 17.8464 1576.75 10.8941C1524.61 2.70683 1469.73 -8.50928 1418.44 -17.3461C1357.45 -27.8568 1305.65 3.11995 1236.61 13.3143C1181.6 21.4373 1122.79 26.0751 1078.14 30.8127C1043.36 34.5028 1014.74 50.6813 978.501 48.0304C931.859 44.6183 853.25 42.737 833.721 41.2216C773.668 36.5612 721.011 -8.64572 664.262 12.0802C582.359 41.9933 472.761 -33.1915 440.501 76.0843C388.284 252.958 -17.2888 84.3749 -49.1306 135.623" stroke="url(#paint17_radial_139_2910)"/>
<path d="M1822.66 208.757C1812.16 205.162 1800.94 196.895 1790.67 187.846C1758.21 159.251 1728.28 145.276 1687.65 71.7269C1665.06 30.837 1622.51 9.39661 1578.87 1.89677C1526.36 -7.12696 1470.94 -19.0789 1418.9 -26.7582C1355.72 -36.0821 1302.25 -1.74296 1231.48 9.47695C1175.56 18.3422 1115.98 21.9442 1070.48 24.9562C1035.84 27.2492 1006.97 41.628 971.01 37.8213C923.312 32.7723 842.364 30.5873 823.645 29.1842C764.61 24.759 712.365 -18.2096 656.875 2.82017C572.776 34.6923 465.749 -34.3436 433.474 71.3837C381.181 242.685 -24.1276 72.1683 -55.4585 124.313" stroke="url(#paint18_radial_139_2910)"/>
<path d="M1832.25 196.029C1820.9 193.078 1808.84 185.187 1797.7 176.488C1762.68 149.168 1730.61 137.313 1688.75 62.3002C1666.25 21.9649 1623.99 0.932317 1580.99 -7.10044C1528.12 -16.9762 1472.15 -29.6254 1419.35 -36.1701C1353.99 -44.2728 1298.85 -6.61199 1226.35 5.63973C1169.52 15.2428 1109.17 17.8541 1062.81 19.1C1028.32 20.0271 999.212 32.5423 963.519 27.6123C914.775 20.8795 831.477 18.4404 813.568 17.147C755.55 12.9569 703.731 -27.7411 649.488 -6.43968C563.213 27.4409 458.736 -35.4954 426.447 66.6833C374.075 232.414 -30.9664 59.9619 -61.7864 113.003" stroke="url(#paint19_radial_139_2910)"/>
<path d="M1841.84 183.3C1829.64 180.994 1816.75 173.473 1804.72 165.13C1767.14 139.068 1732.96 129.344 1689.86 52.8734C1667.44 13.0896 1625.47 -7.54616 1583.1 -16.0977C1529.87 -26.8414 1473.37 -40.1512 1419.81 -45.582C1352.26 -52.4307 1295.45 -11.4869 1221.22 1.80254C1163.48 12.1395 1102.36 13.8053 1055.15 13.2437C1020.8 12.835 991.461 23.4274 956.028 17.4033C906.251 8.94053 820.59 6.29617 803.492 5.10981C746.49 1.15467 695.109 -37.2437 642.1 -15.6995C553.67 20.2407 451.722 -36.6468 419.421 61.9829C366.968 222.142 -37.8051 47.7556 -68.1143 101.692" stroke="url(#paint20_radial_139_2910)"/>
<path d="M1851.43 170.572C1838.39 168.91 1824.65 161.754 1811.74 153.772C1771.61 128.953 1735.32 121.368 1690.97 43.4467C1668.63 4.21129 1626.95 -16.0383 1585.22 -25.0949C1531.63 -36.7231 1474.59 -50.6584 1420.26 -54.994C1350.54 -60.5573 1292.04 -16.3673 1216.09 -2.03465C1157.44 9.03244 1095.55 9.79818 1047.49 7.38739C1013.27 5.67092 983.722 14.2863 948.537 7.19436C897.743 -3.04382 809.703 -5.84515 793.416 -6.92739C737.428 -10.6476 686.5 -46.7203 634.713 -24.9594C544.152 13.094 444.706 -37.7981 412.394 57.2825C359.858 211.871 -44.6439 35.5492 -74.4421 90.3819" stroke="url(#paint21_radial_139_2910)"/>
<path d="M1861.02 157.844C1847.13 156.826 1832.55 150.031 1818.76 142.414C1776.07 118.824 1737.69 113.385 1692.07 34.0197C1669.83 -4.67017 1628.44 -24.5439 1587.34 -34.0923C1533.4 -46.6221 1475.83 -61.149 1420.72 -64.4061C1348.83 -68.6546 1288.63 -21.2532 1210.96 -5.87206C1151.4 5.92178 1088.72 5.83186 1039.83 1.53091C1005.74 -1.4674 975.996 5.12205 941.046 -3.01482C889.256 -15.0722 798.815 -17.9836 783.339 -18.9648C728.364 -22.4503 677.904 -56.1737 627.326 -34.2194C534.662 6.0029 437.689 -38.9494 405.367 52.582C352.746 201.601 -51.4827 23.3426 -80.77 79.0714" stroke="url(#paint22_radial_139_2910)"/>
<path d="M1870.61 145.116C1855.87 144.742 1840.45 138.303 1825.79 131.056C1780.52 108.683 1740.07 105.395 1693.18 24.5931C1671.04 -13.5541 1629.93 -33.0619 1589.45 -43.0894C1535.17 -56.538 1477.07 -71.6243 1421.17 -73.8179C1347.13 -76.7236 1285.23 -26.1436 1205.83 -9.70916C1145.35 2.80835 1081.88 1.90567 1032.16 -4.32525C998.202 -8.58188 968.286 -4.06203 933.555 -13.2237C880.792 -27.1423 787.927 -30.1185 773.263 -31.0019C719.299 -34.2527 669.32 -65.6058 619.939 -43.4791C525.203 -1.02984 430.67 -40.1003 398.341 47.8817C345.631 191.33 -58.3212 11.1364 -87.0977 67.7612" stroke="url(#paint23_radial_139_2910)"/>
<path d="M1880.2 132.388C1864.62 132.658 1848.34 126.572 1832.81 119.698C1784.97 98.5318 1742.47 97.3978 1694.28 15.1663C1672.25 -22.441 1631.42 -41.5922 1591.57 -52.0867C1536.94 -66.472 1478.32 -82.0864 1421.63 -83.2299C1345.44 -84.7668 1281.82 -31.0388 1200.7 -13.5464C1139.3 -0.308118 1075.02 -1.98281 1024.5 -10.1816C990.648 -15.6757 960.591 -13.2634 926.064 -23.4328C872.353 -39.2521 777.038 -42.2502 763.186 -43.0392C710.232 -46.0554 660.748 -75.0195 612.551 -52.7391C515.776 -8.00218 423.649 -41.2512 391.314 43.1812C338.512 181.06 -65.1602 -1.07012 -93.4258 56.4508" stroke="url(#paint24_radial_139_2910)"/>
<path d="M1889.79 119.659C1873.36 120.574 1856.24 114.839 1839.83 108.34C1789.41 88.3727 1744.87 89.3921 1695.39 5.73933C1673.46 -31.3305 1632.92 -50.1342 1593.68 -61.0841C1538.72 -76.4245 1479.57 -92.5367 1422.08 -92.6423C1343.75 -92.7856 1278.4 -35.9384 1195.57 -17.3839C1133.26 -3.42738 1068.14 -5.83575 1016.84 -16.0381C983.081 -22.7513 952.914 -22.4794 918.573 -33.6419C863.942 -51.3995 766.15 -54.3783 753.11 -55.0766C701.164 -57.8583 652.189 -84.4167 605.164 -61.9991C506.387 -14.9115 416.625 -42.4024 384.287 38.4806C331.39 170.79 -71.9993 -13.2767 -99.7539 45.1403" stroke="url(#paint25_radial_139_2910)"/>
<path d="M1899.38 106.931C1882.1 108.49 1864.13 103.103 1846.85 96.9823C1793.85 78.2071 1747.29 81.3782 1696.49 -3.68738C1674.68 -40.2224 1634.42 -58.687 1595.8 -70.0813C1540.51 -86.3952 1480.84 -102.976 1422.54 -102.054C1342.08 -100.781 1274.99 -40.8418 1190.43 -21.221C1127.21 -6.54875 1061.24 -9.65558 1009.18 -21.8943C975.498 -29.811 945.255 -31.707 911.082 -43.8508C855.56 -63.5811 755.261 -66.5023 743.034 -67.1137C692.093 -69.6611 643.644 -93.799 597.776 -71.2589C497.039 -21.7548 409.599 -43.5534 377.261 33.7802C324.263 160.52 -78.8378 -25.483 -106.082 33.83" stroke="url(#paint26_radial_139_2910)"/>
<path d="M1908.97 94.2028C1890.85 96.4056 1872.03 91.3654 1853.88 85.6243C1798.28 68.0362 1749.73 73.3555 1697.6 -13.1142C1675.9 -49.1169 1635.92 -67.2504 1597.92 -79.0786C1542.31 -96.3849 1482.12 -113.406 1422.99 -111.466C1340.41 -108.756 1271.57 -45.7492 1185.3 -25.0583C1121.16 -9.67251 1054.32 -13.4458 1001.51 -27.7507C967.898 -36.8579 937.614 -40.9442 903.591 -54.0599C847.208 -75.7947 744.371 -78.6223 732.957 -79.151C683.021 -81.464 635.112 -103.169 590.389 -80.5188C487.734 -28.5296 402.57 -44.7048 370.234 29.0797C317.133 150.249 -85.6766 -37.6895 -112.409 22.5196" stroke="url(#paint27_radial_139_2910)"/>
<path d="M1918.56 81.4747C1899.59 84.3217 1879.92 79.6266 1860.9 74.2664C1802.7 57.8614 1752.17 65.3235 1698.71 -22.5408C1677.12 -58.0137 1637.44 -75.8235 1600.03 -88.0757C1544.11 -106.394 1483.41 -123.828 1423.45 -120.878C1338.76 -116.711 1268.15 -50.6601 1180.17 -28.8954C1115.11 -12.7982 1047.36 -17.2094 993.852 -33.6069C960.281 -43.8941 929.992 -50.1887 896.1 -64.2688C838.888 -88.0368 733.481 -90.7378 722.881 -91.1881C673.947 -93.2669 626.593 -112.527 583.002 -89.7786C478.478 -35.2329 395.538 -45.8564 363.208 24.3795C309.997 139.978 -92.5154 -49.8957 -118.737 11.2093" stroke="url(#paint28_radial_139_2910)"/>
<path d="M1928.15 68.7463C1908.33 72.2376 1887.8 67.8864 1867.92 62.9082C1807.12 47.683 1754.63 57.2816 1699.81 -31.9678C1678.35 -66.913 1638.95 -84.4061 1602.15 -97.0731C1545.93 -116.422 1484.7 -134.243 1423.9 -130.29C1337.12 -124.648 1264.73 -55.5746 1175.04 -32.7328C1109.05 -15.926 1040.38 -20.95 986.189 -39.4634C952.646 -50.9223 922.388 -59.4389 888.609 -74.478C830.598 -100.305 722.591 -102.849 712.804 -103.226C664.87 -105.07 618.088 -121.876 575.614 -99.0386C469.274 -41.8623 388.502 -47.0092 356.181 19.6788C302.855 129.706 -99.3544 -62.1023 -125.065 -0.101204" stroke="url(#paint29_radial_139_2910)"/>
<path d="M1937.74 56.018C1917.08 60.1536 1895.69 56.1456 1874.94 51.5502C1811.53 37.5024 1757.11 49.2296 1700.92 -41.3946C1679.58 -75.8146 1640.48 -92.9974 1604.27 -106.07C1547.76 -126.471 1486.01 -144.651 1424.36 -139.702C1335.49 -132.568 1261.31 -60.4922 1169.91 -36.5701C1103 -19.0555 1033.38 -24.6709 978.527 -45.3198C944.993 -57.9444 914.802 -68.6927 881.118 -84.687C822.34 -112.596 711.701 -114.955 702.728 -115.263C655.791 -116.874 609.597 -131.217 568.227 -108.299C460.128 -48.4143 381.462 -48.1628 349.155 14.9783C295.708 119.432 -106.193 -74.3088 -131.393 -11.4117" stroke="url(#paint30_radial_139_2910)"/>
<path d="M1947.33 43.2898C1925.82 48.0696 1903.57 44.4042 1881.97 40.1922C1815.93 27.32 1759.6 41.167 1702.02 -50.8214C1680.81 -84.7185 1642.01 -101.597 1606.38 -115.068C1549.6 -136.539 1487.32 -155.053 1424.81 -149.114C1333.86 -140.473 1257.88 -65.4128 1164.78 -40.4074C1096.94 -22.1865 1026.34 -28.3753 970.864 -51.1762C937.322 -64.9624 907.234 -77.9485 873.627 -94.8961C814.113 -124.907 700.809 -127.056 692.651 -127.3C646.709 -128.677 601.121 -140.551 560.84 -117.558C451.042 -54.8863 374.418 -49.3178 342.128 10.2779C288.553 109.155 -113.032 -86.5152 -137.721 -22.722" stroke="url(#paint31_radial_139_2910)"/>
<path d="M1956.92 30.5617C1934.57 35.9857 1911.46 32.6626 1888.99 28.8343C1820.34 17.1365 1762.11 33.0933 1703.13 -60.248C1682.04 -93.6244 1643.55 -110.203 1608.5 -124.065C1551.45 -146.627 1488.64 -165.45 1425.26 -158.526C1332.25 -148.364 1254.46 -70.336 1159.65 -44.2445C1090.88 -25.319 1019.28 -32.0661 963.202 -57.0323C929.634 -71.9779 899.684 -87.2049 866.136 -105.105C805.918 -137.235 689.918 -139.15 682.575 -139.337C637.625 -140.48 592.659 -149.88 553.452 -126.818C442.023 -61.275 367.37 -50.4748 335.101 5.57752C281.391 98.8759 -119.87 -98.7215 -144.049 -34.0323" stroke="url(#paint32_radial_139_2910)"/>
<path d="M1966.51 17.8334C1943.31 23.9016 1919.34 20.9204 1896.01 17.4762C1824.73 6.95196 1764.63 25.0076 1704.24 -69.6749C1683.28 -102.533 1645.09 -118.817 1610.61 -133.062C1553.32 -156.735 1489.97 -175.843 1425.72 -167.938C1330.65 -156.242 1251.03 -75.2623 1154.52 -48.0818C1084.83 -28.453 1012.19 -35.747 955.539 -62.8888C921.929 -78.9928 892.15 -96.461 858.644 -115.314C797.751 -149.578 679.026 -151.24 672.499 -151.375C628.537 -152.284 584.213 -159.205 546.065 -136.078C433.075 -67.578 360.316 -51.6345 328.074 0.877013C274.219 88.592 -126.709 -110.928 -150.377 -45.3427" stroke="url(#paint33_radial_139_2910)"/>
<path d="M1976.1 5.10511C1952.05 11.8176 1927.22 9.17817 1903.03 6.11821C1829.13 -3.23303 1767.17 16.9096 1705.34 -79.1018C1684.51 -111.443 1646.65 -127.437 1612.73 -142.059C1555.2 -166.863 1491.32 -186.233 1426.17 -177.35C1329.06 -164.107 1247.6 -80.191 1149.39 -51.9191C1078.77 -31.5883 1005.07 -39.4202 947.877 -68.7451C914.208 -86.0081 884.634 -105.715 851.154 -125.523C789.614 -161.932 668.135 -163.322 662.423 -163.412C619.447 -164.087 575.783 -168.529 538.678 -145.338C424.205 -73.7922 353.256 -52.7978 321.048 -3.82345C267.038 78.302 -133.548 -123.134 -156.705 -56.6531" stroke="url(#paint34_radial_139_2910)"/>
<path d="M1985.69 -7.6231C1960.8 -0.266384 1935.1 -2.56407 1910.06 -5.23977C1833.52 -13.4182 1769.73 8.79878 1706.45 -88.5285C1685.75 -120.356 1648.21 -136.062 1614.85 -151.057C1557.1 -177.012 1492.66 -196.619 1426.63 -186.762C1327.48 -171.962 1244.17 -85.122 1144.26 -55.7563C1072.71 -34.7247 997.931 -43.0882 940.214 -74.6014C906.471 -93.0251 877.132 -114.967 843.662 -135.732C781.503 -174.296 657.242 -175.397 652.346 -175.449C610.353 -175.891 567.368 -177.851 531.29 -154.598C415.416 -79.915 346.19 -53.9657 314.021 -8.52388C259.846 68.0042 -140.387 -135.341 -163.033 -67.9635" stroke="url(#paint35_radial_139_2910)"/>
<path d="M1995.28 -20.3513C1969.54 -12.3504 1942.98 -14.3063 1917.08 -16.5977C1837.9 -23.6035 1772.3 0.674363 1707.55 -97.9553C1686.99 -129.27 1649.78 -144.692 1616.96 -160.054C1559.01 -187.18 1494.02 -207.002 1427.08 -196.174C1325.91 -179.807 1240.74 -90.0554 1139.13 -59.5936C1066.64 -37.8623 990.769 -46.7533 932.552 -80.4577C898.72 -100.045 869.645 -124.216 836.172 -145.941C773.42 -186.668 646.35 -187.466 642.27 -187.486C601.256 -187.695 558.971 -187.174 523.903 -163.858C406.718 -85.9439 339.117 -55.1398 306.995 -13.2243C252.644 57.696 -147.226 -147.547 -169.36 -79.2738" stroke="url(#paint36_radial_139_2910)"/>
</g>
<defs>
<radialGradient id="paint0_radial_139_2910" cx="0" cy="0" r="1" gradientUnits="userSpaceOnUse" gradientTransform="translate(869.184 257.807) rotate(90) scale(180.058 810.74)">
<stop stop-color="#0E090F"/>
<stop offset="1" stop-color="white"/>
</radialGradient>
<radialGradient id="paint1_radial_139_2910" cx="0" cy="0" r="1" gradientUnits="userSpaceOnUse" gradientTransform="translate(867.596 249.621) rotate(90) scale(175.516 815.481)">
<stop stop-color="#0E090F"/>
<stop offset="1" stop-color="white"/>
</radialGradient>
<radialGradient id="paint2_radial_139_2910" cx="0" cy="0" r="1" gradientUnits="userSpaceOnUse" gradientTransform="translate(866.174 241.425) rotate(90) scale(170.983 820.386)">
<stop stop-color="#0E090F"/>
<stop offset="1" stop-color="white"/>
</radialGradient>
<radialGradient id="paint3_radial_139_2910" cx="0" cy="0" r="1" gradientUnits="userSpaceOnUse" gradientTransform="translate(864.955 233.218) rotate(90) scale(166.463 825.495)">
<stop stop-color="#0E090F"/>
<stop offset="1" stop-color="white"/>
</radialGradient>
<radialGradient id="paint4_radial_139_2910" cx="0" cy="0" r="1" gradientUnits="userSpaceOnUse" gradientTransform="translate(864.002 224.997) rotate(90) scale(161.955 830.869)">
<stop stop-color="#0E090F"/>
<stop offset="1" stop-color="white"/>
</radialGradient>
<radialGradient id="paint5_radial_139_2910" cx="0" cy="0" r="1" gradientUnits="userSpaceOnUse" gradientTransform="translate(863.417 216.761) rotate(90) scale(157.463 836.613)">
<stop stop-color="#0E090F"/>
<stop offset="1" stop-color="white"/>
</radialGradient>
<radialGradient id="paint6_radial_139_2910" cx="0" cy="0" r="1" gradientUnits="userSpaceOnUse" gradientTransform="translate(864.024 208.505) rotate(90) scale(152.991 843.548)">
<stop stop-color="#0E090F"/>
<stop offset="1" stop-color="white"/>
</radialGradient>
<radialGradient id="paint7_radial_139_2910" cx="0" cy="0" r="1" gradientUnits="userSpaceOnUse" gradientTransform="translate(865.655 200.217) rotate(90) scale(148.55 851.507)">
<stop stop-color="#0E090F"/>
<stop offset="1" stop-color="white"/>
</radialGradient>
<radialGradient id="paint8_radial_139_2910" cx="0" cy="0" r="1" gradientUnits="userSpaceOnUse" gradientTransform="translate(867.287 191.76) rotate(90) scale(144.279 859.466)">
<stop stop-color="#0E090F"/>
<stop offset="1" stop-color="white"/>
</radialGradient>
<radialGradient id="paint9_radial_139_2910" cx="0" cy="0" r="1" gradientUnits="userSpaceOnUse" gradientTransform="translate(868.918 182.89) rotate(90) scale(140.421 867.425)">
<stop stop-color="#0E090F"/>
<stop offset="1" stop-color="white"/>
</radialGradient>
<radialGradient id="paint10_radial_139_2910" cx="0" cy="0" r="1" gradientUnits="userSpaceOnUse" gradientTransform="translate(870.549 173.521) rotate(90) scale(137.062 875.384)">
<stop stop-color="#0E090F"/>
<stop offset="1" stop-color="white"/>
</radialGradient>
<radialGradient id="paint11_radial_139_2910" cx="0" cy="0" r="1" gradientUnits="userSpaceOnUse" gradientTransform="translate(872.18 163.743) rotate(90) scale(134.111 883.344)">
<stop stop-color="#0E090F"/>
<stop offset="1" stop-color="white"/>
</radialGradient>
<radialGradient id="paint12_radial_139_2910" cx="0" cy="0" r="1" gradientUnits="userSpaceOnUse" gradientTransform="translate(873.812 153.67) rotate(90) scale(131.456 891.303)">
<stop stop-color="#0E090F"/>
<stop offset="1" stop-color="white"/>
</radialGradient>
<radialGradient id="paint13_radial_139_2910" cx="0" cy="0" r="1" gradientUnits="userSpaceOnUse" gradientTransform="translate(875.443 143.383) rotate(90) scale(129.014 899.262)">
<stop stop-color="#0E090F"/>
<stop offset="1" stop-color="white"/>
</radialGradient>
<radialGradient id="paint14_radial_139_2910" cx="0" cy="0" r="1" gradientUnits="userSpaceOnUse" gradientTransform="translate(877.074 132.941) rotate(90) scale(126.729 907.221)">
<stop stop-color="#0E090F"/>
<stop offset="1" stop-color="white"/>
</radialGradient>
<radialGradient id="paint15_radial_139_2910" cx="0" cy="0" r="1" gradientUnits="userSpaceOnUse" gradientTransform="translate(878.705 122.379) rotate(90) scale(124.562 915.18)">
<stop stop-color="#0E090F"/>
<stop offset="1" stop-color="white"/>
</radialGradient>
<radialGradient id="paint16_radial_139_2910" cx="0" cy="0" r="1" gradientUnits="userSpaceOnUse" gradientTransform="translate(880.337 111.725) rotate(90) scale(122.488 923.139)">
<stop stop-color="#0E090F"/>
<stop offset="1" stop-color="white"/>
</radialGradient>
<radialGradient id="paint17_radial_139_2910" cx="0" cy="0" r="1" gradientUnits="userSpaceOnUse" gradientTransform="translate(881.968 100.996) rotate(90) scale(120.489 931.098)">
<stop stop-color="#0E090F"/>
<stop offset="1" stop-color="white"/>
</radialGradient>
<radialGradient id="paint18_radial_139_2910" cx="0" cy="0" r="1" gradientUnits="userSpaceOnUse" gradientTransform="translate(883.599 90.206) rotate(90) scale(118.551 939.058)">
<stop stop-color="#0E090F"/>
<stop offset="1" stop-color="white"/>
</radialGradient>
<radialGradient id="paint19_radial_139_2910" cx="0" cy="0" r="1" gradientUnits="userSpaceOnUse" gradientTransform="translate(885.23 79.3636) rotate(90) scale(116.665 947.017)">
<stop stop-color="#0E090F"/>
<stop offset="1" stop-color="white"/>
</radialGradient>
<radialGradient id="paint20_radial_139_2910" cx="0" cy="0" r="1" gradientUnits="userSpaceOnUse" gradientTransform="translate(886.862 68.476) rotate(90) scale(114.825 954.976)">
<stop stop-color="#0E090F"/>
<stop offset="1" stop-color="white"/>
</radialGradient>
<radialGradient id="paint21_radial_139_2910" cx="0" cy="0" r="1" gradientUnits="userSpaceOnUse" gradientTransform="translate(888.493 57.5484) rotate(90) scale(113.024 962.935)">
<stop stop-color="#0E090F"/>
<stop offset="1" stop-color="white"/>
</radialGradient>
<radialGradient id="paint22_radial_139_2910" cx="0" cy="0" r="1" gradientUnits="userSpaceOnUse" gradientTransform="translate(890.124 46.5848) rotate(90) scale(111.259 970.894)">
<stop stop-color="#0E090F"/>
<stop offset="1" stop-color="white"/>
</radialGradient>
<radialGradient id="paint23_radial_139_2910" cx="0" cy="0" r="1" gradientUnits="userSpaceOnUse" gradientTransform="translate(891.756 35.5889) rotate(90) scale(109.527 978.853)">
<stop stop-color="#0E090F"/>
<stop offset="1" stop-color="white"/>
</radialGradient>
<radialGradient id="paint24_radial_139_2910" cx="0" cy="0" r="1" gradientUnits="userSpaceOnUse" gradientTransform="translate(893.387 24.567) rotate(90) scale(107.829 986.813)">
<stop stop-color="#0E090F"/>
<stop offset="1" stop-color="white"/>
</radialGradient>
<radialGradient id="paint25_radial_139_2910" cx="0" cy="0" r="1" gradientUnits="userSpaceOnUse" gradientTransform="translate(895.018 13.5564) rotate(90) scale(106.199 994.772)">
<stop stop-color="#0E090F"/>
<stop offset="1" stop-color="white"/>
</radialGradient>
<radialGradient id="paint26_radial_139_2910" cx="0" cy="0" r="1" gradientUnits="userSpaceOnUse" gradientTransform="translate(896.649 2.55608) rotate(90) scale(104.647 1002.73)">
<stop stop-color="#0E090F"/>
<stop offset="1" stop-color="white"/>
</radialGradient>
<radialGradient id="paint27_radial_139_2910" cx="0" cy="0" r="1" gradientUnits="userSpaceOnUse" gradientTransform="translate(898.281 -8.44321) rotate(90) scale(103.174 1010.69)">
<stop stop-color="#0E090F"/>
<stop offset="1" stop-color="white"/>
</radialGradient>
<radialGradient id="paint28_radial_139_2910" cx="0" cy="0" r="1" gradientUnits="userSpaceOnUse" gradientTransform="translate(899.912 -19.4358) rotate(90) scale(101.77 1018.65)">
<stop stop-color="#0E090F"/>
<stop offset="1" stop-color="white"/>
</radialGradient>
<radialGradient id="paint29_radial_139_2910" cx="0" cy="0" r="1" gradientUnits="userSpaceOnUse" gradientTransform="translate(901.543 -30.4186) rotate(90) scale(100.426 1026.61)">
<stop stop-color="#0E090F"/>
<stop offset="1" stop-color="white"/>
</radialGradient>
<radialGradient id="paint30_radial_139_2910" cx="0" cy="0" r="1" gradientUnits="userSpaceOnUse" gradientTransform="translate(903.175 -41.3889) rotate(90) scale(99.1348 1034.57)">
<stop stop-color="#0E090F"/>
<stop offset="1" stop-color="white"/>
</radialGradient>
<radialGradient id="paint31_radial_139_2910" cx="0" cy="0" r="1" gradientUnits="userSpaceOnUse" gradientTransform="translate(904.806 -52.3452) rotate(90) scale(97.8924 1042.53)">
<stop stop-color="#0E090F"/>
<stop offset="1" stop-color="white"/>
</radialGradient>
<radialGradient id="paint32_radial_139_2910" cx="0" cy="0" r="1" gradientUnits="userSpaceOnUse" gradientTransform="translate(906.437 -63.2864) rotate(90) scale(96.6946 1050.49)">
<stop stop-color="#0E090F"/>
<stop offset="1" stop-color="white"/>
</radialGradient>
<radialGradient id="paint33_radial_139_2910" cx="0" cy="0" r="1" gradientUnits="userSpaceOnUse" gradientTransform="translate(908.068 -73.093) rotate(90) scale(96.6576 1058.45)">
<stop stop-color="#0E090F"/>
<stop offset="1" stop-color="white"/>
</radialGradient>
<radialGradient id="paint34_radial_139_2910" cx="0" cy="0" r="1" gradientUnits="userSpaceOnUse" gradientTransform="translate(909.7 -81.6734) rotate(90) scale(97.8694 1066.4)">
<stop stop-color="#0E090F"/>
<stop offset="1" stop-color="white"/>
</radialGradient>
<radialGradient id="paint35_radial_139_2910" cx="0" cy="0" r="1" gradientUnits="userSpaceOnUse" gradientTransform="translate(911.331 -90.1902) rotate(90) scale(99.1652 1074.36)">
<stop stop-color="#0E090F"/>
<stop offset="1" stop-color="white"/>
</radialGradient>
<radialGradient id="paint36_radial_139_2910" cx="0" cy="0" r="1" gradientUnits="userSpaceOnUse" gradientTransform="translate(912.962 -98.641) rotate(90) scale(100.546 1082.32)">
<stop stop-color="#0E090F"/>
<stop offset="1" stop-color="white"/>
</radialGradient>
</defs>
</svg>
