<svg width="40" height="44" viewBox="0 0 40 44" fill="none" xmlns="http://www.w3.org/2000/svg">
<path fill-rule="evenodd" clip-rule="evenodd" d="M19.6902 43.9963C20.0015 44.0167 20.3186 43.9546 20.611 43.7907C20.7197 43.7366 20.8228 43.6723 20.918 43.5985C21.6204 43.152 22.3237 42.7063 23.027 42.2606C23.8064 41.7668 24.5858 41.2729 25.3641 40.7778C25.4775 40.7059 25.5912 40.6341 25.705 40.5622C26.2978 40.1878 26.8929 39.812 27.4685 39.4102C29.0987 38.2728 30.6275 36.9788 31.986 35.5236C34.6753 32.6363 36.7199 29.2148 38.0138 25.4894C39.0684 22.4455 39.5197 19.2359 39.5197 16.0216V10.0536V9.89245C39.5197 9.06817 38.944 8.3498 38.1658 8.11494C37.6918 7.97118 37.221 7.82414 36.7619 7.64616C35.9272 7.27464 35.139 6.81533 34.4066 6.27131C33.7483 5.73681 33.1466 5.13811 32.6117 4.48024C32.0639 3.74242 31.5988 2.94505 31.2258 2.10385C31.1295 1.85962 31.0394 1.61185 30.9591 1.36409C30.7104 0.585852 30.0151 0.0102332 29.1816 0.0102332H27.3027H22.7945H17.3653H12.6544C12.4013 0.0102332 12.1477 0.00767836 11.8939 0.00512177C11.3858 3.44403e-06 10.8771 -0.00512177 10.3703 0.0102332H10.3381C9.50001 0.0102332 8.80927 0.585852 8.5606 1.36409C8.48584 1.59771 8.40476 1.82712 8.31593 2.05374C7.9379 2.9162 7.46319 3.72979 6.90189 4.48777C6.36863 5.1425 5.76921 5.73854 5.11361 6.27089C4.38193 6.81405 3.59186 7.27279 2.76177 7.64403C2.29908 7.82297 1.82977 7.97061 1.35385 8.11494C0.575619 8.3498 0 9.06817 0 9.89245V15.446C0 16.4223 0 17.3985 0.0690742 18.3748C0.216433 20.3595 0.552594 22.3396 1.10979 24.2507C2.21498 28.0452 4.13064 31.5403 6.67257 34.5566C8.64809 36.9005 11.0289 38.7977 13.6076 40.4325L18.7053 43.6651C18.726 43.679 18.7479 43.6928 18.7698 43.7066C18.7916 43.7204 18.8135 43.7342 18.8342 43.748C19.0894 43.9095 19.3873 43.9892 19.6902 43.9963ZM19.7653 39.9802C19.7696 39.9774 19.7739 39.9747 19.7783 39.972C20.386 39.5852 20.9938 39.1996 21.6016 38.814C22.2095 38.4283 22.8174 38.0426 23.4254 37.6557C23.5169 37.5973 23.6084 37.5389 23.6998 37.4806C24.6567 36.8705 25.6095 36.263 26.5152 35.5752C28.0799 34.333 29.4989 32.9143 30.7413 31.3498C32.0392 29.6424 33.1271 27.7811 33.9768 25.81C34.7761 23.8338 35.3356 21.7663 35.641 19.658C35.7696 18.5903 35.8357 17.5155 35.8357 16.4407V13.0054V11.2334C35.4279 11.0806 35.0259 10.9133 34.6292 10.7259C31.6259 9.31263 29.2457 6.74753 27.9191 3.72355C27.8213 3.72288 27.7235 3.72209 27.6258 3.72131C27.372 3.71926 27.1184 3.71722 26.8653 3.71722H22.1544H16.7252H12.2169H11.6078C11.3668 4.27583 11.0906 4.81986 10.7802 5.33816C9.7671 7.03278 8.40403 8.4511 6.80611 9.60234C5.84461 10.2948 4.78723 10.8165 3.68396 11.2324V15.4598C3.68396 16.865 3.71237 18.2661 3.87973 19.6669C3.86999 19.595 3.85987 19.5232 3.84974 19.4523C3.85977 19.5269 3.87013 19.6015 3.88082 19.676C3.89139 19.7641 3.90251 19.8523 3.91421 19.9405C3.90481 19.8582 3.89421 19.7747 3.88302 19.6913C4.18415 21.7827 4.73838 23.8265 5.53166 25.784C6.38307 27.7648 7.47478 29.635 8.77845 31.3499C10.0146 32.9064 11.4255 34.3187 12.9807 35.5564C13.6463 36.0595 14.3325 36.5336 15.0352 36.9788C15.5655 37.3154 16.0947 37.6509 16.6239 37.9864C17.1516 38.3209 17.6792 38.6555 18.208 38.9911C18.7256 39.3208 19.2451 39.6505 19.7653 39.9802ZM8.58823 31.1075L8.64124 31.1756C8.62353 31.1529 8.60586 31.1302 8.58823 31.1075ZM5.66869 26.1157C5.64006 26.0477 5.61172 25.9796 5.58367 25.9114C5.61239 25.9795 5.64103 26.0476 5.66869 26.1157ZM3.88302 19.6913C3.88193 19.6832 3.88083 19.675 3.87973 19.6669C3.88009 19.6699 3.88045 19.673 3.88082 19.676C3.88155 19.6811 3.88228 19.6862 3.88302 19.6913ZM33.851 26.1157C33.8735 26.0604 33.8966 26.005 33.9199 25.9497C33.8971 26.0051 33.8741 26.0604 33.851 26.1157ZM30.9314 31.1075C30.9138 31.1301 30.8962 31.1528 30.8786 31.1754L30.9314 31.1075ZM3.01164 7.54393C2.98737 7.55401 2.96308 7.56398 2.93877 7.57387C2.96306 7.56379 2.98735 7.5538 3.01164 7.54393ZM4.89046 6.44795L4.92163 6.4237C4.91125 6.4318 4.90086 6.43988 4.89046 6.44795ZM7.08241 4.2606C7.07473 4.2705 7.06704 4.28039 7.05933 4.29027L7.08241 4.2606ZM8.27729 2.15093C8.27656 2.15266 8.27583 2.1544 8.27509 2.15614C8.24401 2.22982 8.21293 2.3035 8.18299 2.37718C8.21535 2.30202 8.24677 2.22662 8.27729 2.15093ZM31.3367 2.37718C31.3222 2.34235 31.3078 2.30741 31.2935 2.27239C31.308 2.30732 31.3225 2.34225 31.3367 2.37718ZM36.508 7.54393C36.5413 7.55746 36.5747 7.57123 36.608 7.58513C36.5746 7.57158 36.5413 7.55785 36.508 7.54393ZM15.1042 26.6407L10.3749 21.9114C9.64736 21.1792 9.69801 20.0418 10.3749 19.305C11.0473 18.5728 12.2998 18.6235 12.9813 19.305L13.6537 19.9773L17.0797 23.4034L17.1074 23.3758L22.8866 17.5966L26.5383 13.9448C27.2659 13.2173 28.4079 13.2679 29.1447 13.9448C29.8769 14.6172 29.8262 15.8697 29.1447 16.5512L27.8139 17.8821L22.0347 23.6613L18.3829 27.313C17.6784 28.0176 16.4811 28.0176 15.7765 27.313L15.1042 26.6407Z" fill="url(#paint0_linear_701_209)"/>
<defs>
<linearGradient id="paint0_linear_701_209" x1="-16.0223" y1="-24.9674" x2="57.2564" y2="72.1845" gradientUnits="userSpaceOnUse">
<stop stop-color="#9CF9FF"/>
<stop offset="0.483129" stop-color="#02CCFC"/>
<stop offset="1" stop-color="#446C9F"/>
</linearGradient>
</defs>
</svg>
