<svg width="18" height="10" viewBox="0 0 18 10" fill="none" xmlns="http://www.w3.org/2000/svg">
<path d="M1.617 9.50012V2.44013L6.971 6.46963V9.50012H8.3375V6.18513C8.337 5.93558 8.2193 5.70027 8.02 5.55012L1.527 0.661626C1.3891 0.559176 1.2218 0.503876 1.05 0.503876C0.61255 0.503876 0.25205 0.862676 0.25 1.30013V9.50012H1.617ZM16.424 9.50012V2.44013L11.07 6.46963V9.50012H9.7035V6.18513C9.704 5.93558 9.8217 5.70027 10.021 5.55012L16.514 0.663626C16.6519 0.561176 16.8192 0.505826 16.991 0.505826C17.4277 0.505826 17.7879 0.863426 17.791 1.30013V9.50012H16.424Z" fill="white"/>
</svg>
