<svg width="18" height="14" viewBox="0 0 18 14" fill="none" xmlns="http://www.w3.org/2000/svg">
<path d="M12.0428 13.6495C13.0071 13.6495 13.835 13.5524 14.5265 13.3583C15.2181 13.1641 15.7859 12.8858 16.23 12.5234C16.674 12.1609 16.9976 11.7143 17.2006 11.1836C17.4036 10.6529 17.5051 10.0574 17.5051 9.39728C17.5051 8.2064 17.0991 7.31647 16.2871 6.7275C15.475 6.13853 14.2886 5.84405 12.728 5.84405H5.80014C5.34336 5.84405 5.00395 5.77609 4.7819 5.64017C4.55985 5.50426 4.44883 5.26802 4.44883 4.93147C4.44883 4.59491 4.55985 4.36192 4.7819 4.23247C5.00395 4.10303 5.34336 4.03831 5.80014 4.03831H14.6312L17.1626 0.659821H6.10466C5.14034 0.659821 4.31243 0.756903 3.62092 0.951069C2.9294 1.14524 2.36477 1.41707 1.92702 1.76657C1.48927 2.11606 1.16572 2.53999 0.956364 3.03835C0.747006 3.53671 0.642327 4.09008 0.642327 4.69847C0.642327 5.25508 0.73749 5.76315 0.927815 6.22267C1.11814 6.6822 1.40997 7.07376 1.80331 7.39737C2.19665 7.72098 2.69149 7.9734 3.28785 8.15462C3.8842 8.33584 4.59475 8.42645 5.41949 8.42645H12.3473C12.8168 8.42645 13.1594 8.49765 13.3751 8.64003C13.5908 8.78242 13.6986 9.0219 13.6986 9.35845C13.6986 9.695 13.5908 9.93771 13.3751 10.0866C13.1594 10.2354 12.8168 10.3099 12.3473 10.3099H2.71687L0.185547 13.6495H12.0428Z" fill="white"/>
</svg>
